<?xml version="1.0" encoding="utf-8"?>
<!-- Generator: Adobe Illustrator 24.0.1, SVG Export Plug-In . SVG Version: 6.00 Build 0)  -->
<svg version="1.1" id="Layer_1" xmlns="http://www.w3.org/2000/svg" xmlns:xlink="http://www.w3.org/1999/xlink" x="0px" y="0px"
	 width="613.8px" height="613.8px" viewBox="0 0 613.8 613.8" style="enable-background:new 0 0 613.8 613.8;" xml:space="preserve"
	>
<style type="text/css">
	.st0{fill:#FFFFFF;}
	.st1{fill:#F3B200;}
</style>
<path d="M370.4,536.3c-35,35-91.7,35-126.7,0L77.2,369.8c-35-35-35-91.7,0-126.7L243.7,76.7c35-35,91.7-35,126.7,0l166.5,166.5
	c35,35,35,91.7,0,126.7L370.4,536.3z"/>
<path class="st0" d="M287,307l120.1,120.1l0.2,0.2l92.8-92.8c15-15,15.2-39.8,0.2-54.8l-93.1-93.1L287,307z"/>
<path class="st1" d="M250.8,270.8l120.3-120.3l-36.8-36.8c-15-15-39.9-14.9-54.9,0.1l-92.9,92.8L250.8,270.8z"/>
<path class="st0" d="M334.1,500.6l37.1-37.1L150.4,242.8l-37.1,37.1c-15,15-14.8,39.6,0.2,54.6l166.1,166.1
	C294.6,515.5,319,515.5,334.1,500.6z"/>
</svg>
